<svg width="0" height="0" style="position:absolute"><symbol viewBox="0 0 17 8" fill="currentColor" id="arrow-left" xmlns="http://www.w3.org/2000/svg"><path d="M.646 4.354a.5.5 0 0 1 0-.708L3.828.464a.5.5 0 1 1 .708.708L1.707 4l2.829 2.828a.5.5 0 1 1-.708.708L.646 4.354zM17 4.5H1v-1h16v1z"/></symbol><symbol viewBox="0 0 10 16" fill="none" id="arrow-left-tick" xmlns="http://www.w3.org/2000/svg"><path d="M9.071 1 2 8.071l7.071 7.071" stroke="currentColor" stroke-width="2"/></symbol><symbol viewBox="0 0 17 8" fill="currentColor" id="arrow-right" xmlns="http://www.w3.org/2000/svg"><path d="M16.354 4.354a.5.5 0 0 0 0-.708L13.172.464a.5.5 0 1 0-.708.708L15.293 4l-2.829 2.828a.5.5 0 1 0 .708.708l3.182-3.182zM0 4.5h16v-1H0v1z"/></symbol><symbol viewBox="0 0 27 12" fill="none" id="arrow-right-long" xmlns="http://www.w3.org/2000/svg"><path d="M26.53 6.53a.75.75 0 0 0 0-1.06L21.757.697a.75.75 0 0 0-1.06 1.06L24.939 6l-4.242 4.243a.75.75 0 0 0 1.06 1.06L26.53 6.53zM0 6.75h26v-1.5H0v1.5z" fill="currentColor"/></symbol><symbol viewBox="0 0 10 16" fill="none" id="arrow-right-tick" xmlns="http://www.w3.org/2000/svg"><path d="m1.071 1 7.071 7.071-7.071 7.071" stroke="currentColor" stroke-width="2"/></symbol><symbol fill="none" viewBox="0 0 20 20" id="bag" xmlns="http://www.w3.org/2000/svg"><mask id="fa" fill="#fff"><rect width="16" height="13" x="2" y="5" rx="1"/></mask><rect width="16" height="13" x="2" y="5" stroke="currentColor" stroke-width="3.2" mask="url(#fa)" rx="1"/><path stroke="currentColor" stroke-width="1.6" d="M6 9V6a4 4 0 0 1 4-4 4 4 0 0 1 4 4v3"/></symbol><symbol viewBox="0 0 20 20" fill="none" id="chart" xmlns="http://www.w3.org/2000/svg"><path stroke="currentColor" stroke-width="2.2" d="M5.1 10v7m5-15v15m5-12v12"/></symbol><symbol viewBox="0 0 456 352" fill="currentColor" id="diamond" xmlns="http://www.w3.org/2000/svg"><path opacity=".8" fill-rule="evenodd" clip-rule="evenodd" d="M97.034 0h-.092l-.086.033-44.667 17.079-.078.03-.063.052L.374 60.109 0 60.42l.3.383 226.733 289.204v1.834l.718-.917.719.917v-1.834L455.203 60.803l.3-.383-.374-.31-51.674-42.916-.063-.053-.078-.03L358.647.034 358.561 0H97.034zm130.499 1h-122.8l123.018 16.046L350.769 1H227.533zm.937 97.45V18.655l77.235 41.818L228.47 98.45zm0 248.833V99.968h118.694L228.47 347.283zm-1.437-328.628-77.235 41.818 77.235 37.977V18.655zm0 81.313H108.339l118.694 247.315V99.968zM55.075 17.078l42.02-16.066L220.27 17.08H55.075zm-.357 1h171.279l-77.31 41.86-93.969-41.86zM2.078 59.995h144.279l-93.91-41.832L2.079 59.994zm223.46 286.485L2.168 61.564l105.014 38.304L225.538 346.48zM108.8 98.969h117.02l-77.021-37.873L108.8 98.968zm38.653-37.975-40.028 37.899L3.523 60.994h143.93zM400.428 17.08l-42.02-16.067L235.232 17.08h165.196zm.356 1H229.506l77.31 41.858 93.968-41.858zm52.641 41.915H309.146l93.909-41.832 50.37 41.832zM229.965 346.48l223.37-284.915-105.014 38.304L229.965 346.48zM346.703 98.97h-117.02l77.02-37.873 40 37.872zM308.05 60.993l40.028 37.899L451.98 60.994H308.05z"/></symbol><symbol viewBox="0 0 24 24" fill="currentColor" id="eyes" xmlns="http://www.w3.org/2000/svg"><path fill-rule="evenodd" clip-rule="evenodd" d="M13.004 3.5a1 1 0 1 0-2 0v2.05c-.96.096-1.876.327-2.73.658l-.83-1.158A1 1 0 1 0 5.82 6.215l.639.892c-.531.325-1.024.686-1.473 1.07C3.248 9.666 2 11.668 2 13.5c0 1.832 1.248 3.834 2.985 5.323C6.762 20.345 9.235 21.5 12 21.5c2.764 0 5.238-1.154 7.015-2.676C20.752 17.335 22 15.333 22 13.5c0-1.833-1.248-3.836-2.985-5.324-.33-.283-.684-.552-1.06-.804l.67-.934A1 1 0 1 0 17 5.273L16.192 6.4a10.556 10.556 0 0 0-3.188-.85V3.5zM12 9.5a4 4 0 1 0 0 8 4 4 0 0 0 0-8z"/></symbol><symbol viewBox="0 0 20 20" fill="currentColor" id="favorite-stroke" xmlns="http://www.w3.org/2000/svg"><path d="M10 17.5c-.538-.477-1.145-.973-1.788-1.5h-.008c-2.262-1.85-4.827-3.943-5.959-6.452A6.185 6.185 0 0 1 1.667 7 4.492 4.492 0 0 1 6.25 2.5a5.132 5.132 0 0 1 2.773.82c.364.235.692.52.977.847a4.82 4.82 0 0 1 .977-.848A5.127 5.127 0 0 1 13.75 2.5 4.492 4.492 0 0 1 18.333 7a6.186 6.186 0 0 1-.578 2.552c-1.133 2.509-3.696 4.601-5.958 6.448l-.009.007c-.643.524-1.25 1.02-1.787 1.5L10 17.5zM6.25 4.167a2.946 2.946 0 0 0-2.083.826A2.785 2.785 0 0 0 3.333 7c.01.642.155 1.275.427 1.857a10.264 10.264 0 0 0 2.13 2.893c.827.833 1.777 1.64 2.598 2.318l.691.566.146.12.675.554.01-.01.006-.004h.005l.007-.006h.009l.015-.012.034-.028.006-.005.009-.006h.005l.007-.007.554-.454.145-.12c.234-.19.466-.38.693-.567.822-.678 1.772-1.484 2.598-2.322a10.25 10.25 0 0 0 2.131-2.892A4.531 4.531 0 0 0 16.667 7a2.786 2.786 0 0 0-.834-2 2.946 2.946 0 0 0-2.083-.833 3.323 3.323 0 0 0-2.492 1.092L10 6.71 8.742 5.26A3.323 3.323 0 0 0 6.25 4.167z"/></symbol><symbol viewBox="0 0 24 24" fill="currentColor" id="heart_fill" xmlns="http://www.w3.org/2000/svg"><path d="M2 8.4A5.4 5.4 0 0 1 7.5 3 5.991 5.991 0 0 1 12 5a5.991 5.991 0 0 1 4.5-2A5.4 5.4 0 0 1 22 8.4c0 5.356-6.379 9.4-10 12.6C8.387 17.773 2 13.76 2 8.4z"/></symbol><symbol viewBox="0 0 16 16" fill="currentColor" id="magnifying-glass" xmlns="http://www.w3.org/2000/svg"><path fill-rule="evenodd" clip-rule="evenodd" d="M11.2 6.5a4.7 4.7 0 1 1-9.4 0 4.7 4.7 0 0 1 9.4 0zm-1.138 5.438a6.5 6.5 0 1 1 1.299-1.123l3.912 3.912L14 16l-4-4 .062-.062z"/></symbol><symbol viewBox="0 0 12 16" fill="currentColor" id="map" xmlns="http://www.w3.org/2000/svg"><path d="M6 0A5.801 5.801 0 0 0 .205 5.795c0 3.965 5.186 9.786 5.407 10.032.207.23.57.23.776 0 .221-.246 5.406-6.067 5.406-10.032A5.8 5.8 0 0 0 6 0zm0 8.71a2.919 2.919 0 0 1-2.915-2.915A2.919 2.919 0 0 1 6 2.879a2.919 2.919 0 0 1 2.915 2.916A2.919 2.919 0 0 1 6 8.71z"/></symbol><symbol viewBox="0 0 16 16" fill="none" id="phone" xmlns="http://www.w3.org/2000/svg"><path d="M15.565 11.742 13.332 9.51c-.798-.798-2.153-.479-2.472.558-.24.718-1.037 1.116-1.755.957-1.595-.399-3.748-2.472-4.146-4.147-.24-.718.239-1.515.956-1.754 1.037-.32 1.356-1.675.559-2.472L4.24.419c-.638-.559-1.595-.559-2.153 0L.573 1.934c-1.516 1.595.16 5.821 3.907 9.57 3.748 3.747 7.974 5.502 9.57 3.907l1.515-1.515c.558-.639.558-1.595 0-2.154z" fill="currentColor"/></symbol><symbol viewBox="0 0 20 20" fill="none" id="share" xmlns="http://www.w3.org/2000/svg"><path fill-rule="evenodd" clip-rule="evenodd" d="M11.667 4.583a2.917 2.917 0 1 1 .837 2.045l-4.276 2.59a2.92 2.92 0 0 1 .02 1.487l4.353 2.572a2.917 2.917 0 1 1-.848 1.434L7.398 12.14a2.917 2.917 0 1 1-.059-4.332l4.382-2.654a2.936 2.936 0 0 1-.055-.57zm2.916-1.25a1.25 1.25 0 1 0 0 2.5 1.25 1.25 0 0 0 0-2.5zM5.417 8.75a1.25 1.25 0 1 0 0 2.5 1.25 1.25 0 0 0 0-2.5zm9.166 5.417a1.25 1.25 0 1 0 0 2.5 1.25 1.25 0 0 0 0-2.5z" fill="currentColor"/></symbol><symbol style="position:absolute" viewBox="0 0 0 0" id="sprite.symbol"/><symbol fill="currentColor" viewBox="0 0 17 16" id="star-stroke" xmlns="http://www.w3.org/2000/svg"><path d="m8.5 1.264 1.839 4.27.117.273.296.028 4.63.429-3.493 3.069-.223.196.065.29 1.022 4.535-3.998-2.374-.255-.152-.255.152-3.998 2.374 1.022-4.536.065-.29-.223-.195-3.493-3.069 4.63-.43.296-.027.117-.272L8.5 1.265Z" stroke="#E1A661"/></symbol><symbol viewBox="0 0 1 10" fill="none" id="vr" xmlns="http://www.w3.org/2000/svg"><path stroke="#303030" d="M.5 0v10"/></symbol></svg>